<mxfile host="Electron" agent="Mozilla/5.0 (Windows NT 10.0; Win64; x64) AppleWebKit/537.36 (KHTML, like Gecko) draw.io/26.0.4 Chrome/128.0.6613.186 Electron/32.2.5 Safari/537.36" version="26.0.4">
  <diagram name="Page-1" id="BOIOt-NabuChXxSl8Hol">
    <mxGraphModel dx="864" dy="508" grid="1" gridSize="10" guides="1" tooltips="1" connect="1" arrows="1" fold="1" page="1" pageScale="1" pageWidth="827" pageHeight="1169" math="0" shadow="0">
      <root>
        <mxCell id="0" />
        <mxCell id="1" parent="0" />
        <mxCell id="hkvFxOCbT3XM47Agj5Ho-4" value="tokenisation" style="rhombus;whiteSpace=wrap;html=1;" parent="1" vertex="1">
          <mxGeometry x="217.5" y="140" width="220" height="80" as="geometry" />
        </mxCell>
        <mxCell id="6geBOAgr6h9aDOu0XkhB-27" style="edgeStyle=orthogonalEdgeStyle;rounded=0;orthogonalLoop=1;jettySize=auto;html=1;exitX=0.5;exitY=1;exitDx=0;exitDy=0;entryX=0.5;entryY=0;entryDx=0;entryDy=0;" parent="1" source="ElQrCqCERmmEpLMa2nu--1" target="hkvFxOCbT3XM47Agj5Ho-4" edge="1">
          <mxGeometry relative="1" as="geometry" />
        </mxCell>
        <mxCell id="ElQrCqCERmmEpLMa2nu--1" value="execute command" style="rounded=1;whiteSpace=wrap;html=1;" parent="1" vertex="1">
          <mxGeometry x="255" y="30" width="145" height="80" as="geometry" />
        </mxCell>
        <mxCell id="6geBOAgr6h9aDOu0XkhB-3" style="edgeStyle=orthogonalEdgeStyle;rounded=0;orthogonalLoop=1;jettySize=auto;html=1;entryX=0;entryY=0.5;entryDx=0;entryDy=0;" parent="1" source="ElQrCqCERmmEpLMa2nu--3" target="6geBOAgr6h9aDOu0XkhB-2" edge="1">
          <mxGeometry relative="1" as="geometry" />
        </mxCell>
        <mxCell id="6geBOAgr6h9aDOu0XkhB-5" style="edgeStyle=orthogonalEdgeStyle;rounded=0;orthogonalLoop=1;jettySize=auto;html=1;exitX=0.5;exitY=1;exitDx=0;exitDy=0;" parent="1" source="ElQrCqCERmmEpLMa2nu--3" target="6geBOAgr6h9aDOu0XkhB-1" edge="1">
          <mxGeometry relative="1" as="geometry" />
        </mxCell>
        <mxCell id="6geBOAgr6h9aDOu0XkhB-31" style="edgeStyle=orthogonalEdgeStyle;rounded=0;orthogonalLoop=1;jettySize=auto;html=1;exitX=0.5;exitY=1;exitDx=0;exitDy=0;" parent="1" source="ElQrCqCERmmEpLMa2nu--3" edge="1">
          <mxGeometry relative="1" as="geometry">
            <mxPoint x="335" y="360" as="targetPoint" />
          </mxGeometry>
        </mxCell>
        <mxCell id="ElQrCqCERmmEpLMa2nu--3" value="checking the validity of arguments" style="rounded=0;whiteSpace=wrap;html=1;" parent="1" vertex="1">
          <mxGeometry x="275" y="288" width="120" height="62" as="geometry" />
        </mxCell>
        <mxCell id="6geBOAgr6h9aDOu0XkhB-8" style="edgeStyle=orthogonalEdgeStyle;rounded=0;orthogonalLoop=1;jettySize=auto;html=1;entryX=0;entryY=0.5;entryDx=0;entryDy=0;" parent="1" source="6geBOAgr6h9aDOu0XkhB-1" target="6geBOAgr6h9aDOu0XkhB-7" edge="1">
          <mxGeometry relative="1" as="geometry" />
        </mxCell>
        <mxCell id="6geBOAgr6h9aDOu0XkhB-11" value="" style="edgeStyle=orthogonalEdgeStyle;rounded=0;orthogonalLoop=1;jettySize=auto;html=1;" parent="1" source="6geBOAgr6h9aDOu0XkhB-1" target="6geBOAgr6h9aDOu0XkhB-10" edge="1">
          <mxGeometry relative="1" as="geometry" />
        </mxCell>
        <mxCell id="6geBOAgr6h9aDOu0XkhB-1" value="get command path" style="whiteSpace=wrap;html=1;" parent="1" vertex="1">
          <mxGeometry x="275" y="405" width="120" height="60" as="geometry" />
        </mxCell>
        <mxCell id="6geBOAgr6h9aDOu0XkhB-2" value="return nothing and free" style="whiteSpace=wrap;html=1;" parent="1" vertex="1">
          <mxGeometry x="530" y="289" width="120" height="60" as="geometry" />
        </mxCell>
        <mxCell id="6geBOAgr6h9aDOu0XkhB-4" value="non valide" style="text;html=1;align=center;verticalAlign=middle;resizable=0;points=[];autosize=1;strokeColor=none;fillColor=none;" parent="1" vertex="1">
          <mxGeometry x="420" y="280" width="80" height="30" as="geometry" />
        </mxCell>
        <mxCell id="6geBOAgr6h9aDOu0XkhB-6" value="valide" style="text;html=1;align=center;verticalAlign=middle;resizable=0;points=[];autosize=1;strokeColor=none;fillColor=none;" parent="1" vertex="1">
          <mxGeometry x="345" y="360" width="50" height="30" as="geometry" />
        </mxCell>
        <mxCell id="6geBOAgr6h9aDOu0XkhB-7" value="error message and free" style="whiteSpace=wrap;html=1;" parent="1" vertex="1">
          <mxGeometry x="530" y="405" width="120" height="60" as="geometry" />
        </mxCell>
        <mxCell id="6geBOAgr6h9aDOu0XkhB-9" value="command&lt;div&gt;not found&lt;/div&gt;" style="text;html=1;align=center;verticalAlign=middle;resizable=0;points=[];autosize=1;strokeColor=none;fillColor=none;" parent="1" vertex="1">
          <mxGeometry x="405" y="390" width="80" height="40" as="geometry" />
        </mxCell>
        <mxCell id="6geBOAgr6h9aDOu0XkhB-14" style="edgeStyle=orthogonalEdgeStyle;rounded=0;orthogonalLoop=1;jettySize=auto;html=1;entryX=0;entryY=0.5;entryDx=0;entryDy=0;" parent="1" source="6geBOAgr6h9aDOu0XkhB-10" target="6geBOAgr6h9aDOu0XkhB-13" edge="1">
          <mxGeometry relative="1" as="geometry" />
        </mxCell>
        <mxCell id="6geBOAgr6h9aDOu0XkhB-17" style="edgeStyle=orthogonalEdgeStyle;rounded=0;orthogonalLoop=1;jettySize=auto;html=1;exitX=0.5;exitY=1;exitDx=0;exitDy=0;entryX=0.5;entryY=0;entryDx=0;entryDy=0;" parent="1" source="6geBOAgr6h9aDOu0XkhB-10" target="6geBOAgr6h9aDOu0XkhB-16" edge="1">
          <mxGeometry relative="1" as="geometry" />
        </mxCell>
        <mxCell id="6geBOAgr6h9aDOu0XkhB-10" value="child fork" style="whiteSpace=wrap;html=1;" parent="1" vertex="1">
          <mxGeometry x="275" y="528" width="120" height="60" as="geometry" />
        </mxCell>
        <mxCell id="6geBOAgr6h9aDOu0XkhB-12" value="command found" style="text;html=1;align=center;verticalAlign=middle;resizable=0;points=[];autosize=1;strokeColor=none;fillColor=none;" parent="1" vertex="1">
          <mxGeometry x="327.5" y="478" width="110" height="30" as="geometry" />
        </mxCell>
        <mxCell id="6geBOAgr6h9aDOu0XkhB-13" value="return -1 and free" style="whiteSpace=wrap;html=1;" parent="1" vertex="1">
          <mxGeometry x="530" y="528" width="120" height="60" as="geometry" />
        </mxCell>
        <mxCell id="6geBOAgr6h9aDOu0XkhB-15" value="process failure" style="text;html=1;align=center;verticalAlign=middle;resizable=0;points=[];autosize=1;strokeColor=none;fillColor=none;" parent="1" vertex="1">
          <mxGeometry x="405" y="520" width="100" height="30" as="geometry" />
        </mxCell>
        <mxCell id="6geBOAgr6h9aDOu0XkhB-20" style="edgeStyle=orthogonalEdgeStyle;rounded=0;orthogonalLoop=1;jettySize=auto;html=1;exitX=1;exitY=0.5;exitDx=0;exitDy=0;entryX=0;entryY=0.5;entryDx=0;entryDy=0;" parent="1" source="6geBOAgr6h9aDOu0XkhB-16" target="6geBOAgr6h9aDOu0XkhB-19" edge="1">
          <mxGeometry relative="1" as="geometry" />
        </mxCell>
        <mxCell id="6geBOAgr6h9aDOu0XkhB-29" style="edgeStyle=orthogonalEdgeStyle;rounded=0;orthogonalLoop=1;jettySize=auto;html=1;exitX=0.5;exitY=1;exitDx=0;exitDy=0;entryX=0.5;entryY=0;entryDx=0;entryDy=0;" parent="1" source="6geBOAgr6h9aDOu0XkhB-16" target="6geBOAgr6h9aDOu0XkhB-28" edge="1">
          <mxGeometry relative="1" as="geometry" />
        </mxCell>
        <mxCell id="6geBOAgr6h9aDOu0XkhB-16" value="command execute (execve)" style="whiteSpace=wrap;html=1;" parent="1" vertex="1">
          <mxGeometry x="275" y="670" width="120" height="60" as="geometry" />
        </mxCell>
        <mxCell id="6geBOAgr6h9aDOu0XkhB-18" value="success process" style="text;html=1;align=center;verticalAlign=middle;resizable=0;points=[];autosize=1;strokeColor=none;fillColor=none;" parent="1" vertex="1">
          <mxGeometry x="340" y="610" width="110" height="30" as="geometry" />
        </mxCell>
        <mxCell id="6geBOAgr6h9aDOu0XkhB-19" value="return (-1) and exit" style="whiteSpace=wrap;html=1;" parent="1" vertex="1">
          <mxGeometry x="530" y="670" width="120" height="60" as="geometry" />
        </mxCell>
        <mxCell id="6geBOAgr6h9aDOu0XkhB-22" value="process failure" style="text;html=1;align=center;verticalAlign=middle;resizable=0;points=[];autosize=1;strokeColor=none;fillColor=none;" parent="1" vertex="1">
          <mxGeometry x="405" y="660" width="100" height="30" as="geometry" />
        </mxCell>
        <mxCell id="6geBOAgr6h9aDOu0XkhB-24" style="edgeStyle=orthogonalEdgeStyle;rounded=0;orthogonalLoop=1;jettySize=auto;html=1;entryX=0.417;entryY=0;entryDx=0;entryDy=0;entryPerimeter=0;" parent="1" target="ElQrCqCERmmEpLMa2nu--3" edge="1">
          <mxGeometry relative="1" as="geometry">
            <mxPoint x="325" y="260" as="sourcePoint" />
            <Array as="points">
              <mxPoint x="325" y="220" />
              <mxPoint x="325" y="220" />
            </Array>
          </mxGeometry>
        </mxCell>
        <mxCell id="6geBOAgr6h9aDOu0XkhB-28" value="wait and free" style="whiteSpace=wrap;html=1;" parent="1" vertex="1">
          <mxGeometry x="275" y="820" width="120" height="60" as="geometry" />
        </mxCell>
        <mxCell id="6geBOAgr6h9aDOu0XkhB-30" value="after command execute" style="text;html=1;align=center;verticalAlign=middle;resizable=0;points=[];autosize=1;strokeColor=none;fillColor=none;" parent="1" vertex="1">
          <mxGeometry x="340" y="760" width="150" height="30" as="geometry" />
        </mxCell>
        <mxCell id="6geBOAgr6h9aDOu0XkhB-32" style="edgeStyle=orthogonalEdgeStyle;rounded=0;orthogonalLoop=1;jettySize=auto;html=1;exitX=0.75;exitY=0;exitDx=0;exitDy=0;entryX=0.9;entryY=0.067;entryDx=0;entryDy=0;entryPerimeter=0;" parent="1" source="6geBOAgr6h9aDOu0XkhB-19" target="6geBOAgr6h9aDOu0XkhB-19" edge="1">
          <mxGeometry relative="1" as="geometry" />
        </mxCell>
      </root>
    </mxGraphModel>
  </diagram>
</mxfile>
